<?xml version="1.0" standalone="no"?>
<!DOCTYPE svg PUBLIC "-//W3C//DTD SVG 1.1//EN" "http://www.w3.org/Graphics/SVG/1.1/DTD/svg11.dtd" >
<svg xmlns="http://www.w3.org/2000/svg">
<metadata>Generated by IcoMoon</metadata>
<defs>
<font id="SG-Iconfont" horiz-adv-x="1024">
<font-face units-per-em="1024" ascent="870.4" descent="-153.6" />
<missing-glyph horiz-adv-x="1024" />
<glyph unicode="&#x20;" horiz-adv-x="512" d="" />
<glyph unicode="&#xe900;" glyph-name="file_image" d="M614.395 354.39c0 28.188 22.936 51.060 51.2 51.060s51.2-22.877 51.2-51.060c0-28.188-22.936-51.062-51.2-51.062s-51.2 22.877-51.2 51.062v0zM652.795 203.856l166.395-201.544h-614.378l231.315 303.672 145.198-206.908 71.473 104.781zM921.586-3.048c0-28.188-22.936-45.703-51.2-45.703h-716.773c-28.26 0-51.2 17.514-51.2 45.703v714.88c0 28.188 22.936 56.424 51.2 56.424h460.784v-209.612c0-56.374 45.824-96.764 102.395-96.764h204.793v-464.927zM1008.979 574.931l-277.185 277.833c-9.626 9.548-22.629 17.616-36.198 17.616h-593.182v-2.705c-56.575 0-102.395-47.027-102.395-103.451v-818.331c0-56.373 45.824-99.469 102.395-99.469v2.705h819.171v-2.705c56.575 0 102.395 44.425 102.395 100.798v590.286c0 13.531-5.376 27.878-15.002 37.428v0z" />
<glyph unicode="&#xe901;" glyph-name="folder" d="M921.587 460.788h-819.172v307.189h254.917l100.246-204.793h464.009v-102.397zM102.413-51.195v409.587h819.172v-409.587h-819.172zM512 665.582l-102.397 204.793h-409.587v-1023.965h1023.965v819.172h-511.982z" />
<glyph unicode="&#xe902;" glyph-name="delete" d="M358.417 51.212v409.586h102.395v-409.586h-102.395zM563.21 51.212v409.586h102.395v-409.586h-102.395zM256.023-51.186v614.379h511.981v-614.379h-511.981zM358.417 665.588v102.395h307.188v-102.395h-307.188zM768.004 665.588v204.793h-511.981v-204.793h-255.992v-102.395h153.594v-716.773h716.773v716.773h153.594v102.395h-255.992z" />
<glyph unicode="&#xe903;" glyph-name="arrow_up" d="M1008.988 95.573v0c19.953 20.73 19.953 54.29 0 74.966l-423.061 438.387c-39.959 41.409-104.781 41.409-144.737 0l-426.18-441.568c-19.751-20.521-20.004-53.653-0.511-74.432 19.905-21.258 52.696-21.471 72.904-0.585l389.959 404.138c20.004 20.73 52.388 20.73 72.396 0l386.888-400.905c19.953-20.73 52.388-20.73 72.343 0z" />
<glyph unicode="&#xe904;" glyph-name="arrow_down" d="M14.971 621.265v0c-19.955-20.73-19.955-54.289 0-74.966l423.087-438.398c39.96-41.459 104.787-41.459 144.747 0l426.208 441.579c19.75 20.518 20.006 53.654 0.511 74.436-19.904 21.206-52.701 21.472-72.91 0.583l-389.983-404.15c-20.006-20.73-52.393-20.73-72.399 0l-386.913 400.915c-19.955 20.73-52.342 20.73-72.348 0z" />
<glyph unicode="&#xe905;" glyph-name="arrow_left" d="M774.844 855.434v0c-20.731 19.955-54.292 19.955-74.97 0l-438.423-423.094c-41.409-39.961-41.409-104.789 0-144.75l441.604-426.216c20.519-19.75 53.656-20.006 74.44-0.511v0c21.261 19.903 21.473 52.701 0.583 72.912l-404.172 389.99c-20.731 20.006-20.731 52.394 0 72.4l400.937 386.92c20.731 19.955 20.731 52.343 0 72.349z" />
<glyph unicode="&#xe906;" glyph-name="arrow_right" d="M249.118-138.634v0c20.732-19.955 54.294-19.955 74.973 0l438.438 423.094c41.41 39.961 41.41 104.789 0 144.75l-441.619 426.216c-20.519 19.75-53.658 20.006-74.443 0.511v0c-21.209-19.903-21.474-52.701-0.583-72.912l404.186-389.99c20.732-20.006 20.732-52.394 0-72.4l-400.951-386.92c-20.732-19.955-20.732-52.394 0-72.349z" />
<glyph unicode="&#xe907;" glyph-name="cloud_up" d="M512.334 562.946l-189.658-189.731 72.343-72.371 66.153 66.178v-520.622h102.324v520.622l66.153-66.178 72.343 72.371-189.658 189.731zM936.008 219.925c-89.892-77.336-178.863-66.434-270.188-66.434v102.364c95.008 0 139.264-6.961 190.682 28.201 123.71 84.603 59.195 283.854-93.473 278.378-68.199 338.107-600.031 223.716-494.381-124.423-134.557 107.021-292.443-182.156-6.702-182.156h96.901v-102.364h-143.203c-170.677 0-275.867 182.207-178.147 321.524 46.711 66.536 119.975 82.966 119.975 82.966 33.767 261.692 332.452 399.883 553.678 251.763 94.957-63.619 130.975-156.565 130.975-156.565 190.017-57.733 247.318-301.256 93.883-433.254v0z" />
<glyph unicode="&#xe908;" glyph-name="cloud_down" d="M563.823 42.595v521.341h-102.493v-521.341l-66.262 66.27-72.462-72.471 189.97-189.993 189.97 189.993-72.462 72.471-66.262-66.27zM757.022 153.915h-90.706v102.505h97.061c218.105 0 202.423 314.281 0.307 307.003-71.899 356.308-595.996 207.471-495.194-124.595-75.332 59.863-182.642-7.944-163.732-101.173 19.269-94.612 123.555-81.235 216.926-81.235h37.154v-102.505c-138.57 0-208.060-12.3-284.417 49.921-88.349 71.907-94.345 190.967-37.461 272.049 46.788 66.628 120.173 83.080 120.173 83.080 46.429 359.588 540.291 428.933 684.601 96.355-0.307 0.666 0-0.718 1.179-1.026 279.139-84.823 223.998-500.379-85.889-500.379v0z" />
<glyph unicode="&#xe909;" glyph-name="arrow_in_down" d="M730.829 528.742l-0.154 0.205c-19.2 20.634-51.507 21.76-72.090 2.509l-52.275-48.998c-16.384-15.309-43.11-3.686-43.11 18.688v318.054c0 28.314-22.938 51.2-51.2 51.2s-51.2-22.886-51.2-51.2v-317.286c0-22.528-26.982-34.048-43.264-18.483l-49.869 47.514c-20.429 19.558-52.89 18.637-72.192-1.997-19.149-20.429-18.176-52.531 2.202-71.782l145.818-137.626c39.629-37.427 101.581-37.274 140.954 0.307l144.179 137.523c20.122 19.2 21.094 50.995 2.202 71.373v0zM1024-62.566c0-50.074-34.816-91.034-108.134-91.034h-824.832c-50.278 0-91.034 40.755-91.034 91.034v329.984c0 47.616 36.198 90.982 96.666 90.982h57.293c28.058 0 50.842-22.733 50.842-50.842v-0.666c0-28.109-22.784-50.893-50.842-50.893h-0.717c-28.058 0-50.842-22.733-50.842-50.842v-205.466c0-28.109 22.784-50.893 50.842-50.893h717.517c28.058 0 50.842 22.784 50.842 50.893v205.466c0 28.109-22.784 50.842-50.842 50.842h-0.717c-28.058 0-50.842 22.784-50.842 50.893v0.666c0 28.109 22.784 50.842 50.842 50.842h62.925c50.278 0 91.034-40.755 91.034-90.982v-329.984z" />
<glyph unicode="&#xe90a;" glyph-name="close" d="M586.029 358.4l437.96-417.105-74.085-70.508-437.909 417.105-437.96-417.105-74.034 70.508 437.909 417.105-437.909 417.105 74.034 70.508 437.96-417.105 437.909 417.105 74.085-70.508z" />
<glyph unicode="&#xe90b;" glyph-name="file" d="M921.6-0.009c0-28.262-22.938-51.2-51.2-51.2h-716.8c-28.262 0-51.2 22.938-51.2 51.2v716.8c0 28.262 22.938 51.2 51.2 51.2h460.8v-204.8c0-56.525 45.824-102.4 102.4-102.4h204.8v-460.8zM1008.998 578.193l-277.197 277.197c-9.626 9.626-22.63 15.002-36.198 15.002h-593.203c-56.576 0-102.4-45.824-102.4-102.4v-819.2c0-56.525 45.824-102.4 102.4-102.4h819.2c56.576 0 102.4 45.875 102.4 102.4v593.203c0 13.568-5.376 26.573-15.002 36.198v0z" />
<glyph unicode="&#xe90c;" glyph-name="file_text_data" d="M819.2 102.391c0-28.262-22.938-51.2-51.2-51.2h-512c-28.262 0-51.2 22.938-51.2 51.2s22.938 51.2 51.2 51.2h512c28.262 0 51.2-22.938 51.2-51.2v0zM256 358.391h512c28.262 0 51.2-22.938 51.2-51.2s-22.938-51.2-51.2-51.2h-512c-28.262 0-51.2 22.938-51.2 51.2s22.938 51.2 51.2 51.2v0zM204.8 511.991v102.4c0 28.262 22.938 51.2 51.2 51.2h204.8c28.262 0 51.2-22.938 51.2-51.2v-102.4c0-28.262-22.938-51.2-51.2-51.2h-204.8c-28.262 0-51.2 22.938-51.2 51.2v0zM921.6-0.009c0-28.262-22.938-51.2-51.2-51.2h-716.8c-28.262 0-51.2 22.938-51.2 51.2v716.8c0 28.262 22.938 51.2 51.2 51.2h460.8v-204.8c0-56.525 45.824-102.4 102.4-102.4h204.8v-460.8zM1008.998 578.193l-277.197 277.197c-9.626 9.626-22.63 15.002-36.198 15.002h-593.203c-56.576 0-102.4-45.824-102.4-102.4v-819.2c0-56.525 45.824-102.4 102.4-102.4h819.2c56.576 0 102.4 45.875 102.4 102.4v593.203c0 13.568-5.376 26.573-15.002 36.198v0z" />
<glyph unicode="&#xe90d;" glyph-name="file_music_player" d="M921.6 460.8h-204.8c-56.576 0-102.4 45.875-102.4 102.4v204.8h-460.8c-28.262 0-51.2-22.938-51.2-51.2v-716.8c0-28.262 22.938-51.2 51.2-51.2h716.8c28.262 0 51.2 22.938 51.2 51.2v460.8zM1024 542.003v-593.203c0-56.525-45.824-102.4-102.4-102.4h-819.2c-56.576 0-102.4 45.875-102.4 102.4v819.2c0 56.525 45.824 102.4 102.4 102.4h593.203c13.568 0 26.573-5.376 36.198-15.002l277.197-277.197c9.626-9.626 15.002-22.63 15.002-36.198v0zM716.8 409.6v-256h-0.102c-0.614-56.064-46.131-101.325-102.298-101.325-56.576 0-102.4 45.824-102.4 102.4 0 56.525 45.824 102.4 102.4 102.4v50.125h-204.8v-204.8h-0.102c-0.614-56.064-46.131-101.325-102.298-101.325-56.576 0-102.4 45.824-102.4 102.4 0 56.525 45.824 102.4 102.4 102.4v203.725h409.6z" />
<glyph unicode="&#xe90e;" glyph-name="file_player_media" d="M639.024 280.324l-203.981-116.517c-34.15-19.496-76.646 5.168-76.646 44.468v232.983c0 39.3 42.496 63.913 76.646 44.417l203.981-116.466c34.406-19.65 34.406-69.235 0-88.885v0zM921.597 17.406c0-28.247-22.886-68.671-51.2-68.671h-716.8c-28.262 0-51.2 40.425-51.2 68.671v716.398c0 28.247 22.938 33.671 51.2 33.671h460.8v-187.185c0-56.493 45.875-119.843 102.4-119.843h204.8v-443.041zM1009.046 595.284l-277.248 268.291c-9.574 9.62-22.63 6.243-36.198 6.243h-593.203c-56.525 0-102.4-28.298-102.4-84.842v-818.74c0-56.493 45.875-119.843 102.4-119.843h819.2c56.576 0 102.4 63.35 102.4 119.843v592.87c0 13.561-5.376 26.609-14.95 36.178v0z" />
<glyph unicode="&#xe90f;" glyph-name="fileboard" d="M767.988 0c0-28.262-22.938-51.2-51.2-51.2h-409.6c-28.262 0-51.2 22.938-51.2 51.2v640c0 14.131 11.469 25.6 25.6 25.6h25.6c0-56.525 45.824-102.4 102.4-102.4h204.8c56.576 0 102.4 45.875 102.4 102.4h25.6c14.131 0 25.6-11.469 25.6-25.6v-640zM460.788 768h102.4c28.262 0 51.2-22.938 51.2-51.2s-22.938-51.2-51.2-51.2h-102.4c-28.262 0-51.2 22.938-51.2 51.2s22.938 51.2 51.2 51.2v0zM767.988 768h-51.2c0 56.576-45.824 102.4-102.4 102.4h-204.8c-56.576 0-102.4-45.824-102.4-102.4h-51.2c-56.576 0-102.4-45.824-102.4-102.4v-716.8c0-56.525 45.824-102.4 102.4-102.4h512c56.576 0 102.4 45.875 102.4 102.4v716.8c0 56.576-45.824 102.4-102.4 102.4v0z" />
<glyph unicode="&#xe910;" glyph-name="fileboard_plus" d="M665.588 256c0-28.262-22.938-51.2-51.2-51.2h-51.2v-51.2c0-28.262-22.938-51.2-51.2-51.2s-51.2 22.938-51.2 51.2v51.2h-51.2c-28.262 0-51.2 22.938-51.2 51.2s22.938 51.2 51.2 51.2h51.2v51.2c0 28.262 22.938 51.2 51.2 51.2s51.2-22.938 51.2-51.2v-51.2h51.2c28.262 0 51.2-22.938 51.2-51.2v0zM767.988 0c0-28.262-22.938-51.2-51.2-51.2h-409.6c-28.262 0-51.2 22.938-51.2 51.2v640c0 14.131 11.469 25.6 25.6 25.6h25.6c0-56.525 45.824-102.4 102.4-102.4h204.8c56.576 0 102.4 45.875 102.4 102.4h25.6c14.131 0 25.6-11.469 25.6-25.6v-640zM460.788 768h102.4c28.262 0 51.2-22.938 51.2-51.2s-22.938-51.2-51.2-51.2h-102.4c-28.262 0-51.2 22.938-51.2 51.2s22.938 51.2 51.2 51.2v0zM767.988 768h-51.2c0 56.576-45.824 102.4-102.4 102.4h-204.8c-56.576 0-102.4-45.824-102.4-102.4h-51.2c-56.576 0-102.4-45.824-102.4-102.4v-716.8c0-56.525 45.824-102.4 102.4-102.4h512c56.576 0 102.4 45.875 102.4 102.4v716.8c0 56.576-45.824 102.4-102.4 102.4v0z" />
<glyph unicode="&#xe911;" glyph-name="lock_close_round" d="M767.988-0.007c0-28.262-22.938-51.2-51.2-51.2h-409.6c-28.262 0-51.2 22.938-51.2 51.2v409.6c0 28.262 22.938 51.2 51.2 51.2h409.6c28.262 0 51.2-22.938 51.2-51.2v-409.6zM409.588 665.593c0 56.474 45.926 102.4 102.4 102.4s102.4-51.2 102.4-102.4v-102.4h-204.8v102.4zM716.788 563.193v102.4c0 115.046-115.763 230.144-247.603 199.936-97.178-22.272-161.997-114.995-161.997-214.682v-87.654h-51.2c-56.576 0-102.4-45.824-102.4-102.4v-512c0-56.576 45.824-102.4 102.4-102.4h512c56.576 0 102.4 45.824 102.4 102.4v512c0 56.576-45.824 102.4-102.4 102.4h-51.2z" />
<glyph unicode="&#xe912;" glyph-name="clock" d="M921.6 358.4c0 225.843-183.757 409.6-409.6 409.6s-409.6-183.757-409.6-409.6c0-225.843 183.757-409.6 409.6-409.6s409.6 183.757 409.6 409.6zM1024 358.4c0-282.778-229.222-512-512-512s-512 229.222-512 512c0 282.778 229.222 512 512 512s512-229.222 512-512zM819.2 307.2c0-28.262-22.938-51.2-51.2-51.2h-204.8c-56.576 0-102.4 45.824-102.4 102.4v256c0 28.262 22.938 51.2 51.2 51.2s51.2-22.938 51.2-51.2v-204.8c0-28.16 23.040-51.2 51.2-51.2h153.6c28.262 0 51.2-22.938 51.2-51.2z" />
<glyph unicode="&#xe913;" glyph-name="calendar" d="M920.128 460.8h-817.891v155.085c0 27.443 22.236 49.715 49.636 49.715h52.601v-102.4h102.236v102.4h408.946v-102.4h102.236v102.4h51.118c28.217 0 51.118-22.938 51.118-51.2v-153.6zM920.128 0c0-28.16-23.003-51.2-51.118-51.2h-715.655c-28.217 0-51.118 22.938-51.118 51.2v358.4h817.891v-358.4zM3.272-38.963c0-56.525 49.022-114.637 105.457-114.637h817.891c56.486 0 97.38 52.275 97.38 114.637 0 19.917-1.636 634.931-1.636 668.314 0 106.598-14.364 138.65-204.473 138.65v102.4h-102.236v-102.4h-408.946v102.4h-102.236v-102.4h-102.236c-56.23 0-102.236-46.080-102.236-102.4l3.272-704.563z" />
<glyph unicode="&#xe914;" glyph-name="lock_open_round" d="M767.988 0.003c0-28.262-22.938-51.2-51.2-51.2h-409.6c-28.262 0-51.2 22.938-51.2 51.2v409.6c0 28.262 22.938 51.2 51.2 51.2h409.6c28.262 0 51.2-22.938 51.2-51.2v-409.6zM409.588 563.203v95.642c0 40.858 21.35 80.435 58.010 98.458 62.464 30.72 123.238-9.318 141.363-60.826 6.758-19.2 26.317-30.874 46.643-30.874v0c34.816 0 60.826 34.714 48.333 67.226-35.686 93.133-141.005 165.376-254.413 127.13-87.45-29.491-142.336-116.838-142.336-209.101v-87.654c-84.838 0-153.6-68.762-153.6-153.6v-409.6c0-84.838 68.762-153.6 153.6-153.6h409.6c84.838 0 153.6 68.762 153.6 153.6v409.6c0 84.838-68.762 153.6-153.6 153.6h-307.2z" />
<glyph unicode="&#xe915;" glyph-name="profile" d="M512 358.401c-113.485 0-205.775 91.853-205.775 204.8s92.29 204.8 205.775 204.8c113.485 0 205.775-91.853 205.775-204.8s-92.29-204.8-205.775-204.8zM705.326 323.943c81.641 65.382 129.227 171.11 111.736 286.874-20.32 134.298-132.571 241.766-268.074 257.434-186.998 21.658-345.651-123.238-345.651-305.050 0-96.768 45.065-182.989 115.337-239.258-172.645-64.563-298.683-216.166-318.437-420.762-2.881-30.259 20.835-56.781 51.392-56.781 26.185 0 48.511 19.661 50.826 45.619 20.629 228.506 196.412 363.981 409.544 363.981s388.915-135.475 409.544-363.981c2.315-25.958 24.642-45.619 50.826-45.619 30.558 0 54.273 26.522 51.392 56.781-19.754 204.595-145.792 356.198-318.437 420.762z" />
</font>
</defs>
</svg>
